<?xml version="1.0" standalone="no"?>
<svg viewBox="0 0 200 200" xmlns="http://www.w3.org/2000/svg">
  <path fill="#FC8E14" d="M28.9,-40.3C39.4,-32.1,51.3,-26.3,61,-15.4C70.7,-4.4,78.2,11.7,73.5,23.2C68.8,34.6,51.9,41.4,37.6,52.8C23.3,64.2,11.6,80.3,0.9,79.1C-9.9,77.9,-19.8,59.4,-27.4,45.8C-34.9,32.1,-40.2,23.5,-35.9,16.5C-31.6,9.4,-17.7,4.1,-19.5,-11.4C-21.4,-26.8,-39.1,-52.5,-38.4,-63.9C-37.8,-75.4,-18.9,-72.7,-4.9,-66C9.2,-59.3,18.3,-48.6,28.9,-40.3Z" transform="translate(100 100)" />
</svg>
